<?xml version="1.0" encoding="us-ascii" standalone="no"?><svg xmlns="http://www.w3.org/2000/svg" xmlns:xlink="http://www.w3.org/1999/xlink" contentStyleType="text/css" height="923px" preserveAspectRatio="none" style="width:465px;height:923px;background:#FFFFFF;" version="1.1" viewBox="0 0 465 923" width="465px" zoomAndPan="magnify"><defs/><g><!--cluster FindMyTech--><g id="cluster_FindMyTech"><rect fill="none" height="910" rx="2.5" ry="2.5" style="stroke:#181818;stroke-width:1.0;" width="318" x="141" y="7"/><text fill="#000000" font-family="sans-serif" font-size="14" font-weight="bold" lengthAdjust="spacing" textLength="85" x="257.5" y="23.5332">FindMyTech</text></g><g id="elem_UC1"><ellipse cx="300.1965" cy="64.2393" fill="#F1F1F1" rx="91.6965" ry="20.7393" style="stroke:#181818;stroke-width:0.5;"/><text fill="#000000" font-family="sans-serif" font-size="14" lengthAdjust="spacing" textLength="142" x="229.1965" y="67.9678">Rechercher un produit</text></g><g id="elem_UC3"><ellipse cx="300.2192" cy="144.9438" fill="#F1F1F1" rx="112.7192" ry="24.9438" style="stroke:#181818;stroke-width:0.5;"/><text fill="#000000" font-family="sans-serif" font-size="14" lengthAdjust="spacing" textLength="189" x="205.7192" y="148.6724">Filtrer par cat&#233;gorie et budget</text></g><g id="elem_UC4"><ellipse cx="299.7982" cy="228.7596" fill="#F1F1F1" rx="106.7982" ry="23.7596" style="stroke:#181818;stroke-width:0.5;"/><text fill="#000000" font-family="sans-serif" font-size="14" lengthAdjust="spacing" textLength="176" x="211.7982" y="232.4882">Consulter la fiche technique</text></g><g id="elem_UC2"><ellipse cx="300.0017" cy="309.0003" fill="#F1F1F1" rx="93.0017" ry="21.0003" style="stroke:#181818;stroke-width:0.5;"/><text fill="#000000" font-family="sans-serif" font-size="14" lengthAdjust="spacing" textLength="145" x="227.5017" y="312.7289">Comparer des produits</text></g><g id="elem_UC8"><ellipse cx="299.7512" cy="388.8502" fill="#F1F1F1" rx="107.2512" ry="23.8502" style="stroke:#181818;stroke-width:0.5;"/><text fill="#000000" font-family="sans-serif" font-size="14" lengthAdjust="spacing" textLength="177" x="211.2512" y="392.5788">Ajouter un produit au panier</text></g><g id="elem_UC9"><ellipse cx="300.0017" cy="469.0003" fill="#F1F1F1" rx="93.0017" ry="21.0003" style="stroke:#181818;stroke-width:0.5;"/><text fill="#000000" font-family="sans-serif" font-size="14" lengthAdjust="spacing" textLength="145" x="227.5017" y="472.7289">Passer une commande</text></g><g id="elem_UC10"><ellipse cx="299.8974" cy="545.9795" fill="#F1F1F1" rx="90.3974" ry="20.4795" style="stroke:#181818;stroke-width:0.5;"/><text fill="#000000" font-family="sans-serif" font-size="14" lengthAdjust="spacing" textLength="139" x="230.3974" y="549.708">Effectuer un paiement</text></g><g id="elem_UC5"><ellipse cx="300.0966" cy="633.0193" fill="#F1F1F1" rx="143.0966" ry="31.0193" style="stroke:#181818;stroke-width:0.5;"/><text fill="#000000" font-family="sans-serif" font-size="14" lengthAdjust="spacing" textLength="254" x="173.0966" y="636.7478">Ajouter un produit &#224; la base de donn&#233;es</text></g><g id="elem_UC6"><ellipse cx="299.804" cy="723.7608" fill="#F1F1F1" rx="111.804" ry="24.7608" style="stroke:#181818;stroke-width:0.5;"/><text fill="#000000" font-family="sans-serif" font-size="14" lengthAdjust="spacing" textLength="187" x="206.304" y="727.4893">Modifier/Supprimer un produit</text></g><g id="elem_UC7"><ellipse cx="299.9661" cy="803.7932" fill="#F1F1F1" rx="86.9661" ry="19.7932" style="stroke:#181818;stroke-width:0.5;"/><text fill="#000000" font-family="sans-serif" font-size="14" lengthAdjust="spacing" textLength="131" x="234.4661" y="807.5217">G&#233;rer les utilisateurs</text></g><g id="elem_UC11"><ellipse cx="299.8974" cy="879.9795" fill="#F1F1F1" rx="90.3974" ry="20.4795" style="stroke:#181818;stroke-width:0.5;"/><text fill="#000000" font-family="sans-serif" font-size="14" lengthAdjust="spacing" textLength="139" x="230.3974" y="883.708">G&#233;rer les commandes</text></g><!--entity Utilisateur--><g id="elem_Utilisateur"><ellipse cx="51.5" cy="278.5" fill="#F1F1F1" rx="8" ry="8" style="stroke:#181818;stroke-width:0.5;"/><path d="M51.5,286.5 L51.5,313.5 M38.5,294.5 L64.5,294.5 M51.5,313.5 L38.5,328.5 M51.5,313.5 L64.5,328.5 " fill="none" style="stroke:#181818;stroke-width:0.5;"/><text fill="#000000" font-family="sans-serif" font-size="14" lengthAdjust="spacing" textLength="62" x="20.5" y="344.5332">Utilisateur</text></g><!--entity Administrateur--><g id="elem_Administrateur"><ellipse cx="51.5" cy="733.5" fill="#F1F1F1" rx="8" ry="8" style="stroke:#181818;stroke-width:0.5;"/><path d="M51.5,741.5 L51.5,768.5 M38.5,749.5 L64.5,749.5 M51.5,768.5 L38.5,783.5 M51.5,768.5 L64.5,783.5 " fill="none" style="stroke:#181818;stroke-width:0.5;"/><text fill="#000000" font-family="sans-serif" font-size="14" lengthAdjust="spacing" textLength="91" x="6" y="799.5332">Administrateur</text></g><!--link Utilisateur to UC1--><g id="link_Utilisateur_UC1"><path d="M56.73,269.95 C63.95,222.98 83.1,145.1 133,102 C154.37,83.54 176.9974,74.7003 204.3674,69.4503 " fill="none" id="Utilisateur-to-UC1" style="stroke:#181818;stroke-width:1.0;"/><polygon fill="#181818" points="210.26,68.32,200.6676,66.0871,205.3495,69.2619,202.1747,73.9438,210.26,68.32" style="stroke:#181818;stroke-width:1.0;"/></g><!--link Utilisateur to UC2--><g id="link_Utilisateur_UC2"><path d="M82.73,309 C113.58,309 157.03,309 200.86,309 " fill="none" id="Utilisateur-to-UC2" style="stroke:#181818;stroke-width:1.0;"/><polygon fill="#181818" points="206.86,309,197.86,305,201.86,309,197.86,313,206.86,309" style="stroke:#181818;stroke-width:1.0;"/></g><!--link Utilisateur to UC3--><g id="link_Utilisateur_UC3"><path d="M68.98,269.81 C82.37,242.63 103.83,207.72 133,187 C152.99,172.8 171.5359,164.9105 195.3559,158.6705 " fill="none" id="Utilisateur-to-UC3" style="stroke:#181818;stroke-width:1.0;"/><polygon fill="#181818" points="201.16,157.15,191.4401,155.5613,196.3232,158.4171,193.4674,163.3002,201.16,157.15" style="stroke:#181818;stroke-width:1.0;"/></g><!--link Utilisateur to UC4--><g id="link_Utilisateur_UC4"><path d="M82.81,292.45 C97.63,284.85 115.91,276.17 133,270 C160.78,259.96 186.1999,252.9161 214.0399,246.3561 " fill="none" id="Utilisateur-to-UC4" style="stroke:#181818;stroke-width:1.0;"/><polygon fill="#181818" points="219.88,244.98,210.2025,243.1508,215.0133,246.1268,212.0373,250.9375,219.88,244.98" style="stroke:#181818;stroke-width:1.0;"/></g><!--link Utilisateur to UC8--><g id="link_Utilisateur_UC8"><path d="M82.87,325.04 C97.7,332.43 115.98,340.89 133,347 C161.26,357.14 187.2273,364.4031 215.3773,371.1931 " fill="none" id="Utilisateur-to-UC8" style="stroke:#181818;stroke-width:1.0;"/><polygon fill="#181818" points="221.21,372.6,213.3988,366.6012,216.3494,371.4276,211.523,374.3781,221.21,372.6" style="stroke:#181818;stroke-width:1.0;"/></g><!--link Utilisateur to UC9--><g id="link_Utilisateur_UC9"><path d="M68.95,348.03 C82.33,375.06 103.78,409.7 133,430 C156.34,446.22 179.6411,454.5606 206.9911,460.1406 " fill="none" id="Utilisateur-to-UC9" style="stroke:#181818;stroke-width:1.0;"/><polygon fill="#181818" points="212.87,461.34,204.8513,455.6216,207.9709,460.3405,203.252,463.4601,212.87,461.34" style="stroke:#181818;stroke-width:1.0;"/></g><!--link Utilisateur to UC10--><g id="link_Utilisateur_UC10"><path d="M57.63,348.34 C65.65,393.43 85.49,466.35 133,507 C154.82,525.67 178.0493,534.6501 205.7993,540.0201 " fill="none" id="Utilisateur-to-UC10" style="stroke:#181818;stroke-width:1.0;"/><polygon fill="#181818" points="211.69,541.16,203.6139,535.523,206.7811,540.2101,202.094,543.3772,211.69,541.16" style="stroke:#181818;stroke-width:1.0;"/></g><!--link Administrateur to UC5--><g id="link_Administrateur_UC5"><path d="M82.72,724.9 C96.55,709.3 114.07,692.37 133,681 C151.9,669.64 167.9092,662.6588 189.2892,655.8988 " fill="none" id="Administrateur-to-UC5" style="stroke:#181818;stroke-width:1.0;"/><polygon fill="#181818" points="195.01,654.09,185.2228,652.9894,190.2426,655.5974,187.6346,660.6172,195.01,654.09" style="stroke:#181818;stroke-width:1.0;"/></g><!--link Administrateur to UC6--><g id="link_Administrateur_UC6"><path d="M97.14,756.76 C128.29,751.7 165.0075,745.7414 203.0775,739.5614 " fill="none" id="Administrateur-to-UC6" style="stroke:#181818;stroke-width:1.0;"/><polygon fill="#181818" points="209,738.6,199.4753,736.0938,204.0646,739.4012,200.7572,743.9904,209,738.6" style="stroke:#181818;stroke-width:1.0;"/></g><!--link Administrateur to UC7--><g id="link_Administrateur_UC7"><path d="M97.14,771.24 C133.77,777.19 180.3674,784.7493 222.6574,791.6093 " fill="none" id="Administrateur-to-UC7" style="stroke:#181818;stroke-width:1.0;"/><polygon fill="#181818" points="228.58,792.57,220.3366,787.1805,223.6445,791.7694,219.0556,795.0773,228.58,792.57" style="stroke:#181818;stroke-width:1.0;"/></g><!--link Administrateur to UC11--><g id="link_Administrateur_UC11"><path d="M85.24,803.06 C98.72,816.9 115.32,831.41 133,841 C159.54,855.4 185.4082,863.325 213.9982,869.085 " fill="none" id="Administrateur-to-UC11" style="stroke:#181818;stroke-width:1.0;"/><polygon fill="#181818" points="219.88,870.27,211.8473,864.5713,214.9785,869.2825,210.2673,872.4137,219.88,870.27" style="stroke:#181818;stroke-width:1.0;"/></g><!--SRC=[TP9DJiCm48NtESM85Img-l-pGQegogeI0de0DvwaWn8xsEC5Gjo5RS-HYs4J1oWaKhp8UrzctdXIOCR06WpbHmP91bCchHAHiZQmPoh82aPdehAM9IcoR1en2RnGUO5miIKbTwzFc1ulu2q1yC_bWtz34muu1PNHqX5VWR2mtum2iAM2ZNShOI0LN9zoRGW16GvEvjYoay1kjBAkO4yN0ZBoLO5zVKKl3YCtRRZIb_EOHDlsj14O1s3zh1sVHGBXV0H5Q2At3DoziFOBGqXrMGebspwhODzccP_UnKA2i4JrFTmmwUbKVuJu1s7HvmEfbQfFsCQRXOzsMbBcerm_kgeoL7PTtZo0T_KfZ5duCTtFfjfQYpz8EqBhZqRDaduj6GQ3cxYP_-guKvrqgjDETTcfhhep39jqvpzSD6TznhpFMFGP_XRUaqy0]--></g></svg>